<?xml version="1.0" encoding="UTF-8" standalone="no"?>
<svg width="22px" height="22px" viewBox="0 0 22 22" version="1.1" xmlns="http://www.w3.org/2000/svg" xmlns:xlink="http://www.w3.org/1999/xlink">
    <!-- Generator: Sketch 40.1 (33804) - http://www.bohemiancoding.com/sketch -->
    <title>LCB_22</title>
    <desc>Created with Sketch.</desc>
    <defs>
        <rect id="path-1" x="-1.77635684e-15" y="0" width="2" height="2"></rect>
        <rect id="path-3" x="4.8985872e-16" y="0" width="2" height="2"></rect>
        <rect id="path-5" x="0" y="0" width="2" height="2"></rect>
        <rect id="path-7" x="3.6739404e-16" y="0" width="2" height="2"></rect>
    </defs>
    <g id="Page-1" stroke="none" stroke-width="1" fill="none" fill-rule="evenodd">
        <g id="LCB_22">
            <rect id="Rectangle-2" fill="#518DDE" x="0" y="0" width="22" height="22" rx="3"></rect>
            <g id="Group-9" transform="translate(5.000000, 5.000000)">
                <g id="Group-8-Copy-4" transform="translate(11.000000, 7.500000) rotate(-180.000000) translate(-11.000000, -7.500000) translate(10.000000, 3.000000)">
                    <rect id="Rectangle" fill="#FFFFFF" x="0" y="4" width="1.25" height="2"></rect>
                    <rect id="Rectangle-Copy-26" fill="#FFFFFF" x="1.77635684e-15" y="7" width="1.25" height="2"></rect>
                    <g id="Group-7" transform="translate(0.000000, 0.000000)">
                        <rect id="Rectangle-Copy-24" fill="#FFFFFF" x="-1.77635684e-15" y="2" width="1.25" height="1"></rect>
                        <mask id="mask-2" fill="white">
                            <use xlink:href="#path-1"></use>
                        </mask>
                        <g id="Rectangle-3" transform="translate(1.000000, 1.000000) scale(1, -1) translate(-1.000000, -1.000000) "></g>
                        <path d="M2.5,2 C2.5,1.58578644 2.22017797,1.25 1.875,1.25 C1.52982203,1.25 1.25,1.58578644 1.25,2 C1.25,2.41421356 1.52982203,2.75 1.875,2.75 C2.22017797,2.75 2.5,2.41421356 2.5,2 Z M-1.77635684e-15,2 C-1.77635684e-15,0.8954305 0.839466094,0 1.875,0 C2.91053391,0 3.75,0.8954305 3.75,2 C3.75,3.1045695 2.91053391,4 1.875,4 C0.839466094,4 -1.77635684e-15,3.1045695 -1.77635684e-15,2 Z" id="Oval" fill="#FFFFFF" mask="url(#mask-2)"></path>
                    </g>
                </g>
                <g id="Group-8-Copy-6" transform="translate(1.000000, 4.500000) rotate(-360.000000) translate(-1.000000, -4.500000) ">
                    <rect id="Rectangle" fill="#FFFFFF" x="-1.30505585e-16" y="4" width="1.25" height="2"></rect>
                    <rect id="Rectangle-Copy-26" fill="#FFFFFF" x="6.04282494e-16" y="7" width="1.25" height="2"></rect>
                    <g id="Group-7" transform="translate(-0.000000, 0.000000)">
                        <rect id="Rectangle-Copy-24" fill="#FFFFFF" x="4.8985872e-16" y="2" width="1.25" height="1"></rect>
                        <mask id="mask-4" fill="white">
                            <use xlink:href="#path-3"></use>
                        </mask>
                        <g id="Rectangle-3" transform="translate(1.000000, 1.000000) scale(1, -1) translate(-1.000000, -1.000000) "></g>
                        <path d="M2.5,2 C2.5,1.58578644 2.22017797,1.25 1.875,1.25 C1.52982203,1.25 1.25,1.58578644 1.25,2 C1.25,2.41421356 1.52982203,2.75 1.875,2.75 C2.22017797,2.75 2.5,2.41421356 2.5,2 Z M0,2 C0,0.8954305 0.839466094,0 1.875,0 C2.91053391,0 3.75,0.8954305 3.75,2 C3.75,3.1045695 2.91053391,4 1.875,4 C0.839466094,4 0,3.1045695 0,2 Z" id="Oval" fill="#FFFFFF" mask="url(#mask-4)"></path>
                    </g>
                </g>
                <g id="Group-8-Copy-2" transform="translate(5.000000, 11.000000) rotate(-90.000000) translate(-5.000000, -11.000000) translate(4.000000, 6.000000)">
                    <rect id="Rectangle" fill="#FFFFFF" x="0" y="3" width="1.25" height="2"></rect>
                    <rect id="Rectangle-Copy-21" fill="#FFFFFF" x="0" y="6" width="1.25" height="2"></rect>
                    <rect id="Rectangle-Copy-27" fill="#FFFFFF" x="0" y="9" width="1.25" height="1"></rect>
                    <g id="Group-7">
                        <rect id="Rectangle-Copy-24" fill="#FFFFFF" x="0" y="1.92" width="1.2" height="0.5"></rect>
                        <mask id="mask-6" fill="white">
                            <use xlink:href="#path-5"></use>
                        </mask>
                        <g id="Rectangle-3" transform="translate(1.000000, 1.000000) scale(1, -1) translate(-1.000000, -1.000000) "></g>
                        <path d="M2.5,1.875 C2.5,1.52982203 2.22017797,1.25 1.875,1.25 C1.52982203,1.25 1.25,1.52982203 1.25,1.875 C1.25,2.22017797 1.52982203,2.5 1.875,2.5 C2.22017797,2.5 2.5,2.22017797 2.5,1.875 Z M0,1.875 C0,0.839466094 0.839466094,0 1.875,0 C2.91053391,0 3.75,0.839466094 3.75,1.875 C3.75,2.91053391 2.91053391,3.75 1.875,3.75 C0.839466094,3.75 0,2.91053391 0,1.875 Z" id="Oval" fill="#FFFFFF" mask="url(#mask-6)"></path>
                    </g>
                </g>
                <g id="Group-8-Copy-5" transform="translate(7.000000, 1.000000) rotate(-270.000000) translate(-7.000000, -1.000000) translate(6.000000, -4.000000)">
                    <rect id="Rectangle" fill="#FFFFFF" x="-3.3708736e-16" y="3" width="1.25" height="2"></rect>
                    <rect id="Rectangle-Copy-21" fill="#FFFFFF" x="0" y="6" width="1.25" height="2"></rect>
                    <rect id="Rectangle-Copy-27" fill="#FFFFFF" x="7.65094759e-16" y="9" width="1.25" height="1"></rect>
                    <g id="Group-7" transform="translate(-0.000000, 0.000000)">
                        <rect id="Rectangle-Copy-24" fill="#FFFFFF" x="3.52698278e-16" y="1.92" width="1.2" height="0.5"></rect>
                        <mask id="mask-8" fill="white">
                            <use xlink:href="#path-7"></use>
                        </mask>
                        <g id="Rectangle-3" transform="translate(1.000000, 1.000000) scale(1, -1) translate(-1.000000, -1.000000) "></g>
                        <path d="M2.5,1.875 C2.5,1.52982203 2.22017797,1.25 1.875,1.25 C1.52982203,1.25 1.25,1.52982203 1.25,1.875 C1.25,2.22017797 1.52982203,2.5 1.875,2.5 C2.22017797,2.5 2.5,2.22017797 2.5,1.875 Z M0,1.875 C0,0.839466094 0.839466094,0 1.875,0 C2.91053391,0 3.75,0.839466094 3.75,1.875 C3.75,2.91053391 2.91053391,3.75 1.875,3.75 C0.839466094,3.75 0,2.91053391 0,1.875 Z" id="Oval" fill="#FFFFFF" mask="url(#mask-8)"></path>
                    </g>
                </g>
            </g>
        </g>
    </g>
</svg>